<?xml version="1.0" encoding="UTF-8" standalone="no"?>
<!-- Created with Inkscape (http://www.inkscape.org/) -->

<svg
   version="1.1"
   id="svg1"
   width="845.56128"
   height="216.91867"
   viewBox="0 0 845.56128 216.91868"
   sodipodi:docname="Logo + text.svg"
   xml:space="preserve"
   inkscape:version="1.4.2 (f4327f4, 2025-05-13)"
   xmlns:inkscape="http://www.inkscape.org/namespaces/inkscape"
   xmlns:sodipodi="http://sodipodi.sourceforge.net/DTD/sodipodi-0.dtd"
   xmlns="http://www.w3.org/2000/svg"
   xmlns:svg="http://www.w3.org/2000/svg"><defs
     id="defs1"><rect
       x="329.87094"
       y="12.852115"
       width="59.262531"
       height="100.6749"
       id="rect1" /><rect
       x="329.87094"
       y="12.852115"
       width="59.262531"
       height="100.6749"
       id="rect1-4" /><rect
       x="329.87094"
       y="12.852115"
       width="59.262531"
       height="100.6749"
       id="rect1-5" /><rect
       x="329.87094"
       y="12.852115"
       width="59.262531"
       height="100.6749"
       id="rect1-5-2" /></defs><sodipodi:namedview
     id="namedview1"
     pagecolor="#ffffff"
     bordercolor="#000000"
     borderopacity="0.25"
     inkscape:showpageshadow="2"
     inkscape:pageopacity="0.0"
     inkscape:pagecheckerboard="0"
     inkscape:deskcolor="#d1d1d1"
     inkscape:zoom="1.2629705"
     inkscape:cx="422.41684"
     inkscape:cy="108.07854"
     inkscape:window-width="1920"
     inkscape:window-height="1094"
     inkscape:window-x="-11"
     inkscape:window-y="-11"
     inkscape:window-maximized="1"
     inkscape:current-layer="g1"
     showgrid="false"><inkscape:grid
       id="grid1"
       units="px"
       originx="-1.6249974e-07"
       originy="9.6523441e-06"
       spacingx="1"
       spacingy="1"
       empcolor="#0099e5"
       empopacity="0.30196078"
       color="#0099e5"
       opacity="0.14901961"
       empspacing="5"
       enabled="true"
       visible="false" /></sodipodi:namedview><g
     inkscape:groupmode="layer"
     inkscape:label="Image"
     id="g1"
     style="fill:#5b5962;fill-opacity:1"
     transform="translate(-53.466978,-86.529652)"><g
       id="g2"><path
         style="fill:#131317;fill-opacity:1"
         d="m 219.95328,303.15186 c -26.00362,-2.81982 -47.20177,-10.82972 -65.81326,-24.86809 -27.21564,-20.52834 -45.01764,-47.98745 -52.18853,-80.49938 -2.600218,-11.78907 -3.119908,-38.29132 -0.98046,-50 0.95473,-5.225 1.95488,-10.7375 2.22256,-12.25 0.43725,-2.47063 0.19579,-2.75156 -2.37681,-2.76535 -4.702568,-0.0252 -18.316224,-3.8133 -24.244674,-6.74622 -7.85867,-3.88785 -18.1972,-14.40192 -20.40603,-20.75251 -1.85263,-5.326463 -3.48481,-18.485928 -2.29283,-18.485928 0.39004,0 1.85254,1.35883 3.25,3.01961 1.39746,1.66079 4.54684,4.19521 6.99862,5.63205 4.33848,2.54252 4.76248,2.59367 15.8441,1.91126 13.19156,-0.81235 17.381196,0.39762 23.880184,6.896628 l 3.71409,3.71409 4.81444,-4.50334 c 6.21318,-5.811718 10.04756,-6.835398 22.61958,-6.038908 11.48545,0.72766 13.60702,0.0387 21.07338,-6.84357 l 4.38564,-4.04254 v 6.08985 c 0,19.220268 -16.14639,34.396818 -41.75,39.242278 -3.4375,0.65055 -6.25,1.59588 -6.25,2.10074 0,0.50486 1.51239,3.28218 3.36086,6.17181 5.25048,8.20781 15.95793,18.18932 23.49061,21.898 l 6.60523,3.25205 111.52165,0.5 111.52165,0.5 0.31799,3.3121 c 0.51827,5.39817 -1.59773,23.08357 -3.79135,31.6879 -12.93593,50.7403 -54.33666,90.09839 -105.21054,100.01964 -8.15773,1.59089 -32.42752,2.70326 -40.3161,1.84783 z m 34.5,-9.60914 c 22.35513,-12.28734 42.08944,-33.52075 52.89848,-56.91687 4.09876,-8.87176 8.10152,-20.72325 8.10152,-23.98724 0,-1.78057 -0.65883,-1.91191 -8.25,-1.64466 l -8.25,0.29044 -2.16538,7.61625 c -8.14578,28.65101 -26.57258,55.10892 -49.97414,71.75482 -4.54962,3.23622 -8.04922,6.10686 -7.77687,6.3792 1.29595,1.29595 10.4974,-0.78825 15.41639,-3.49194 z m -21.60507,-1.22985 c 10.8323,-6.17305 17.11482,-11.21701 27.4936,-22.07341 9.74391,-10.19231 17.2983,-20.93186 22.72964,-32.31313 4.61711,-9.67508 9.6764,-25.24737 8.56402,-26.35975 -0.47955,-0.47955 -4.40187,-0.73922 -8.71627,-0.57705 l -7.84437,0.29486 -1.66931,6.5 c -3.6397,14.17228 -12.43963,32.2234 -21.93829,45.00156 -8.16592,10.98527 -25.59536,27.40058 -32.68107,30.77952 -4.62096,2.20359 -4.16633,3.21892 1.44133,3.21892 3.81731,0 6.34691,-0.89624 12.62072,-4.47152 z m 49.30246,-3.99022 c 19.80388,-9.06651 43.69594,-38.83752 53.79659,-67.03393 3.86661,-10.79381 3.95377,-10.63644 -5.70188,-10.29477 l -8.2079,0.29044 -0.81163,4 c -2.48608,12.2522 -10.72665,30.61539 -19.70136,43.90224 -5.23278,7.74703 -18.15598,21.60405 -27.07121,29.02736 l -4.5,3.74695 3.43737,-0.60075 c 1.89055,-0.33041 5.83256,-1.6973 8.76002,-3.03754 z m 58.3236,-47.35552 c 6.97575,-10.3256 15.56907,-27.99268 14.25493,-29.30682 -0.55231,-0.55231 -2.94286,-0.86283 -5.31234,-0.69006 -3.60008,0.26251 -4.43037,0.72503 -5.05186,2.81414 -5.26476,17.69731 -10.47616,29.12987 -19.01574,41.71597 -2.69279,3.96878 -4.87491,7.56878 -4.84915,8 0.0977,1.6352 15.01706,-15.19564 19.97416,-22.53323 z m -74.63008,-48.43274 c 2.02661,-3.2275 -0.41659,-5.21405 -6.82879,-5.55242 -6.00019,-0.31664 -8.56212,0.79791 -8.56212,3.72486 0,3.1343 2.24954,4.17198 8.38747,3.86901 4.31689,-0.21308 6.20005,-0.76201 7.00344,-2.04145 z"
         id="path1"
         sodipodi:nodetypes="ssssssssssssscssscssssscccsssssssscssssssssscsssssssscssscssssssssssssss" /><path
         d="m 464.487,300.86701 h -56.02003 v -94.33736 h 9.20239 v 85.87952 H 464.487 Z m 15.65073,-18.21688 q 0,-6.36144 2.95547,-10.6265 2.95546,-4.33736 7.7246,-6.79518 4.8362,-2.53012 11.01584,-3.61446 6.24693,-1.15663 12.69528,-1.15663 2.48522,0 4.43313,0.0728 2.01521,0.0728 3.7616,0.2169 1.81356,0.14459 3.62723,0.36148 1.81357,0.21689 3.96301,0.50608 v -4.84337 q 0,-4.91567 -2.01509,-8.09639 -1.94792,-3.18073 -4.83632,-4.98795 -2.88828,-1.87952 -6.04528,-2.60242 -3.15699,-0.79514 -5.37362,-0.79514 -6.98577,0 -12.89669,2.0241 -5.91105,2.02409 -11.01596,5.42169 l -4.16454,-7.44579 q 5.64233,-3.68675 12.62798,-6 7.05295,-2.38554 15.44921,-2.38554 5.10491,0 10.00841,1.44578 4.97055,1.37349 8.86639,4.33736 3.96312,2.89156 6.31399,7.66265 2.35098,4.77107 2.35098,11.42168 v 44.09639 h -9.26946 v -11.27711 q -2.41815,3.25301 -5.50797,5.71084 -3.02264,2.45783 -6.38117,4.0482 -3.35853,1.51807 -6.71706,2.31325 -3.35853,0.86744 -6.38117,0.86744 -12.42645,0 -18.80762,-5.13252 -6.38117,-5.13254 -6.38117,-14.747 z m 25.18879,11.42169 q 5.77669,0 10.3443,-1.80723 4.63467,-1.87952 7.85884,-4.6265 3.22417,-2.74699 4.97067,-5.85542 1.81356,-3.10844 1.81356,-5.63856 v -6.36145 q -4.50043,-0.72284 -8.66497,-0.79514 -4.09736,-0.0728 -7.12,-0.0728 -4.97068,0 -9.60535,0.72284 -4.5676,0.72285 -7.99331,2.38554 -3.42571,1.59036 -5.50798,4.19278 -2.08227,2.6024 -2.08227,6.43373 0,4.26505 3.82866,7.87951 3.89595,3.54217 12.15785,3.54217 z m 112.64453,-26.81928 q 0,7.73494 -2.21662,14.24097 -2.21663,6.50602 -6.38117,11.20481 -4.09737,4.62651 -9.94112,7.22893 -5.84386,2.6024 -13.09822,2.6024 -5.10491,0 -9.80688,-1.95181 -4.63478,-1.9518 -8.66497,-5.78313 v 6.0723 h -9.20228 v -94.33736 h 9.20228 v 33.18072 q 4.03019,-3.68674 8.66497,-5.71083 4.70197,-2.09639 9.80688,-2.09639 7.25436,0 13.09822,2.6747 5.84375,2.6024 9.94112,7.30121 4.16454,4.6265 6.38117,11.20481 2.21662,6.50602 2.21662,14.16867 z m -9.33663,0 q 0,-5.78313 -1.41061,-10.6265 -1.34332,-4.91566 -4.16454,-8.53012 -2.82111,-3.61446 -7.05283,-5.71085 -4.16454,-2.09638 -9.67252,-2.09638 -10.61289,0 -18.47185,9.03614 v 36 q 4.03019,4.69879 8.5978,6.7229 4.63478,2.02409 9.87405,2.02409 5.50798,0 9.60534,-2.09639 4.16454,-2.09638 6.98565,-5.71084 2.82122,-3.61446 4.23172,-8.45783 1.47779,-4.91567 1.47779,-10.55422 z m 82.75378,14.96386 q 0,5.92772 -2.75393,9.83133 -2.75405,3.90361 -7.12012,6.21686 -4.2989,2.31325 -9.67252,3.25301 -5.30645,1.01204 -10.41136,1.01204 -8.53062,0 -16.99406,-2.6747 -8.46344,-2.6747 -14.64319,-7.01205 l 4.09748,-8.53011 q 6.91848,4.69879 13.63553,7.22891 6.71706,2.53011 13.90424,2.53011 20.75565,0 20.75565,-11.56626 0,-2.81927 -1.7465,-4.55421 -1.6792,-1.80724 -4.5676,-2.89157 -2.88829,-1.15662 -6.64977,-1.80723 -3.69441,-0.65055 -7.79178,-1.22893 -5.23927,-0.79514 -10.41136,-1.87952 -5.1722,-1.08433 -9.4711,-3.25301 -4.23172,-2.16867 -6.85129,-5.78313 -2.55252,-3.61445 -2.55252,-9.54216 0,-5.06024 2.35098,-8.747 2.41816,-3.68675 6.38117,-6.14457 4.03019,-2.45783 9.40381,-3.61446 5.37363,-1.15662 11.15031,-1.15662 8.26191,0 14.77743,2.09638 6.51553,2.02409 11.75479,5.85542 l -3.6943,7.73494 q -5.37362,-4.0482 -10.88159,-5.63855 -5.50798,-1.66266 -11.95633,-1.66266 -2.88828,0 -6.44834,0.57825 -3.49289,0.50608 -6.51553,1.87952 -3.02264,1.30121 -5.10491,3.46988 -2.01509,2.09639 -2.01509,5.3494 0,2.81927 1.6792,4.55421 1.74639,1.66266 4.63479,2.81928 2.88828,1.08433 6.5827,1.73494 3.76148,0.65055 7.85884,1.22893 5.10503,0.79514 10.27712,1.87952 5.23927,1.08433 9.47099,3.18073 4.29889,2.09638 6.91847,5.71083 2.61969,3.61446 2.61969,9.54218 z"
         id="text1-1"
         style="font-family:'Anonymous Pro';-inkscape-font-specification:'Anonymous Pro';white-space:pre;fill:#131317;stroke-width:11.8925"
         aria-label="Labs" /><path
         d="m 467.91271,144.867 q 0,17.92771 -7.12001,27.83132 -7.05294,9.83133 -21.62884,9.83133 -11.68762,0 -19.61375,-6.57832 -7.92602,-6.65059 -11.08313,-19.80723 l 7.99331,-3.25301 q 2.88829,11.71085 8.59779,16.48193 5.70951,4.69879 14.10578,4.69879 6.17963,0 10.0084,-2.6747 3.89584,-2.67468 5.91093,-6.79517 2.08227,-4.19278 2.82111,-9.3253 0.73941,-5.20482 0.73941,-10.40964 V 86.529649 h 9.26945 z m 19.07633,-31.37349 h 9.20239 v 41.63855 q 0,9.03614 3.62712,14.0241 3.69442,4.91565 11.82197,4.91565 5.10503,0 9.20239,-2.53012 4.09737,-2.53011 6.98565,-6.72289 2.8884,-4.26506 4.36608,-9.68674 1.54496,-5.49397 1.54496,-11.42169 v -30.21686 h 9.26946 V 180.867 h -9.26946 v -16.84338 q -6.5827,18.50603 -23.64393,18.50603 -23.10663,0 -23.10663,-27.39759 z m 134.40772,33.75903 q 0,7.73494 -2.21662,14.24096 -2.21663,6.50603 -6.38117,11.20482 -4.09737,4.62651 -9.94112,7.22892 -5.84386,2.60241 -13.09822,2.60241 -5.10491,0 -9.80688,-1.95181 -4.63478,-1.95181 -8.66497,-5.78313 V 180.867 H 562.0855 V 86.529649 h 9.20228 v 33.180721 q 4.03019,-3.68675 8.66497,-5.71084 4.70197,-2.09638 9.80688,-2.09638 7.25436,0 13.09822,2.6747 5.84375,2.6024 9.94112,7.3012 4.16454,4.62651 6.38117,11.20482 2.21662,6.50602 2.21662,14.16867 z m -9.33663,0 q 0,-5.78313 -1.41061,-10.62651 -1.34332,-4.91565 -4.16454,-8.53011 -2.82111,-3.61446 -7.05283,-5.71085 -4.16454,-2.09639 -9.67252,-2.09639 -10.61289,0 -18.47185,9.03615 v 36 q 4.03019,4.69879 8.5978,6.72289 4.63478,2.02409 9.87405,2.02409 5.50798,0 9.60534,-2.09638 4.16454,-2.09638 6.98565,-5.71084 2.82122,-3.61446 4.23172,-8.45783 1.47779,-4.91567 1.47779,-10.55422 z m 21.69602,15.39759 q 0,-6.36145 2.95546,-10.6265 2.95547,-4.33736 7.72461,-6.79518 4.8362,-2.53012 11.01595,-3.61446 6.24682,-1.15663 12.69516,-1.15663 2.48534,0 4.43325,0.0728 2.0151,0.0728 3.76148,0.21689 1.81368,0.1446 3.62724,0.36149 1.81356,0.21689 3.96301,0.50607 v -4.84337 q 0,-4.91567 -2.01509,-8.09638 -1.94792,-3.18073 -4.83621,-4.98796 -2.8884,-1.87952 -6.04539,-2.60241 -3.157,-0.79514 -5.37362,-0.79514 -6.98565,0 -12.8967,2.0241 -5.91092,2.02409 -11.01595,5.42168 l -4.16454,-7.44578 q 5.64233,-3.68675 12.62809,-6 7.05283,-2.38554 15.4491,-2.38554 5.10491,0 10.0084,1.44578 4.97056,1.37349 8.86651,4.33735 3.96301,2.89157 6.31399,7.66266 2.35098,4.77107 2.35098,11.42168 v 44.09639 h -9.26957 v -11.27712 q -2.41816,3.25302 -5.50798,5.71085 -3.02264,2.45782 -6.38116,4.04819 -3.35853,1.51808 -6.71706,2.31326 -3.35841,0.86744 -6.38117,0.86744 -12.42645,0 -18.80762,-5.13253 -6.38117,-5.13253 -6.38117,-14.74699 z m 25.18879,11.42168 q 5.77669,0 10.34429,-1.80722 4.63467,-1.87952 7.85885,-4.62651 3.22417,-2.74698 4.97067,-5.85541 1.81356,-3.10845 1.81356,-5.63857 v -6.36144 q -4.50043,-0.72285 -8.66497,-0.79514 -4.09737,-0.0728 -7.12001,-0.0728 -4.97067,0 -9.60534,0.72284 -4.56761,0.72285 -7.99331,2.38554 -3.42571,1.59036 -5.50798,4.19277 -2.08227,2.60241 -2.08227,6.43373 0,4.26506 3.82877,7.87952 3.89583,3.54217 12.15774,3.54217 z m 109.21894,-51.10843 q -4.97067,-2.6747 -11.82197,-2.6747 -5.64233,0 -10.07558,2.60242 -4.43326,2.6024 -7.52307,6.86746 -3.08982,4.19277 -4.76903,9.68676 -1.61214,5.42168 -1.61214,11.20481 v 21.75904 h 14.17295 v 8.45783 h -37.54818 v -8.45783 h 14.17295 v -50.45783 h -14.17295 v -8.45783 h 23.37523 v 16.91566 q 6.31399,-18.50602 23.97982,-18.50602 4.76903,0 8.26191,0.65055 3.56006,0.65054 6.5827,2.31325 z m 79.19372,36.43374 q -1.07415,10.6265 -7.79178,16.91566 -6.64977,6.21687 -16.65817,6.21687 -5.50798,0 -10.07559,-1.95181 -4.5676,-1.95181 -7.79178,-5.42168 -3.22417,-3.46988 -5.03773,-8.31326 -1.74639,-4.91566 -1.74639,-10.6988 v -34.19276 h -14.17295 v -8.45783 h 14.17295 V 86.529649 h 9.20228 v 26.963861 h 26.66658 v 8.45783 h -26.66658 v 34.19276 q 0,3.68675 1.07415,6.93976 1.14179,3.25302 3.08982,5.71085 2.01509,2.45783 4.83632,3.90361 2.82111,1.37349 6.44834,1.37349 6.8513,0 11.41891,-4.55421 4.63478,-4.6265 5.30644,-11.92771 z m 21.02436,-8.74699 q 1.00766,10.69879 7.25436,17.06024 6.24681,6.36144 16.25522,6.36144 7.05283,0 12.56081,-3.10843 5.50797,-3.10843 8.2619,-7.73494 l 6.44835,4.77109 q -4.70185,7.08434 -11.21737,10.84337 -6.51552,3.68675 -16.05369,3.68675 -7.25447,0 -13.29976,-2.60241 -6.04528,-2.60241 -10.47853,-7.22892 -4.36608,-4.69879 -6.78423,-11.13253 -2.41816,-6.43373 -2.41816,-14.31325 0,-7.66265 2.14945,-14.09638 2.21662,-6.50603 6.31399,-11.20482 4.16465,-4.77109 10.07558,-7.37349 5.91104,-2.6747 13.23258,-2.6747 7.9932,0 13.97142,2.89156 5.9781,2.89157 9.94123,8.02409 4.03019,5.06025 5.91093,12.14458 1.94791,7.08434 1.94791,15.68675 z m 44.33229,-8.45783 q -1.54485,-11.06023 -7.45589,-16.48193 -5.91093,-5.42169 -14.5759,-5.42169 -4.43325,0 -8.19484,1.59037 -3.76148,1.51806 -6.64977,4.40963 -2.8884,2.89157 -4.83631,7.01206 -1.94792,4.04819 -2.48534,8.89156 z"
         id="text1-1-1"
         style="font-family:'Anonymous Pro';-inkscape-font-specification:'Anonymous Pro';white-space:pre;fill:#131317;stroke-width:11.8925"
         aria-label="Jubarte" /></g></g></svg>
