<?xml version="1.0" encoding="UTF-8" standalone="no"?>
<!-- Created with Inkscape (http://www.inkscape.org/) -->

<svg
   version="1.1"
   id="svg1"
   width="845.56128"
   height="216.91867"
   viewBox="0 0 845.56128 216.91868"
   sodipodi:docname="Logo + text.svg"
   xml:space="preserve"
   inkscape:version="1.4.2 (f4327f4, 2025-05-13)"
   xmlns:inkscape="http://www.inkscape.org/namespaces/inkscape"
   xmlns:sodipodi="http://sodipodi.sourceforge.net/DTD/sodipodi-0.dtd"
   xmlns="http://www.w3.org/2000/svg"
   xmlns:svg="http://www.w3.org/2000/svg"><defs
     id="defs1"><rect
       x="329.87094"
       y="12.852115"
       width="59.262531"
       height="100.6749"
       id="rect1" /><rect
       x="329.87094"
       y="12.852115"
       width="59.262531"
       height="100.6749"
       id="rect1-4" /><rect
       x="329.87094"
       y="12.852115"
       width="59.262531"
       height="100.6749"
       id="rect1-5" /><rect
       x="329.87094"
       y="12.852115"
       width="59.262531"
       height="100.6749"
       id="rect1-5-2" /></defs><sodipodi:namedview
     id="namedview1"
     pagecolor="#ffffff"
     bordercolor="#000000"
     borderopacity="0.25"
     inkscape:showpageshadow="2"
     inkscape:pageopacity="0.0"
     inkscape:pagecheckerboard="0"
     inkscape:deskcolor="#d1d1d1"
     inkscape:zoom="1.3794133"
     inkscape:cx="504.56234"
     inkscape:cy="100.40501"
     inkscape:window-width="2160"
     inkscape:window-height="1244"
     inkscape:window-x="328"
     inkscape:window-y="-11"
     inkscape:window-maximized="1"
     inkscape:current-layer="g1"
     showgrid="false"><inkscape:grid
       id="grid1"
       units="px"
       originx="-1.6249974e-07"
       originy="9.6523441e-06"
       spacingx="1"
       spacingy="1"
       empcolor="#0099e5"
       empopacity="0.30196078"
       color="#0099e5"
       opacity="0.14901961"
       empspacing="5"
       enabled="true"
       visible="false" /></sodipodi:namedview><g
     inkscape:groupmode="layer"
     inkscape:label="Image"
     id="g1"
     style="fill:#5b5962;fill-opacity:1"
     transform="translate(-53.466978,-86.529652)"><path
       style="fill:#131317;fill-opacity:1"
       d="m 219.95328,303.15186 c -26.00362,-2.81982 -47.20177,-10.82972 -65.81326,-24.86809 -27.21564,-20.52834 -45.01764,-47.98745 -52.18853,-80.49938 -2.600218,-11.78907 -3.119908,-38.29132 -0.98046,-50 0.95473,-5.225 1.95488,-10.7375 2.22256,-12.25 0.43725,-2.47063 0.19579,-2.75156 -2.37681,-2.76535 -4.702568,-0.0252 -18.316224,-3.8133 -24.244674,-6.74622 -7.85867,-3.88785 -18.1972,-14.40192 -20.40603,-20.75251 -1.85263,-5.326463 -3.48481,-18.485928 -2.29283,-18.485928 0.39004,0 1.85254,1.35883 3.25,3.01961 1.39746,1.66079 4.54684,4.19521 6.99862,5.63205 4.33848,2.54252 4.76248,2.59367 15.8441,1.91126 13.19156,-0.81235 17.381196,0.39762 23.880184,6.896628 l 3.71409,3.71409 4.81444,-4.50334 c 6.21318,-5.811718 10.04756,-6.835398 22.61958,-6.038908 11.48545,0.72766 13.60702,0.0387 21.07338,-6.84357 l 4.38564,-4.04254 v 6.08985 c 0,19.220268 -16.14639,34.396818 -41.75,39.242278 -3.4375,0.65055 -6.25,1.59588 -6.25,2.10074 0,0.50486 1.51239,3.28218 3.36086,6.17181 5.25048,8.20781 15.95793,18.18932 23.49061,21.898 l 6.60523,3.25205 111.52165,0.5 111.52165,0.5 0.31799,3.3121 c 0.51827,5.39817 -1.59773,23.08357 -3.79135,31.6879 -12.93593,50.7403 -54.33666,90.09839 -105.21054,100.01964 -8.15773,1.59089 -32.42752,2.70326 -40.3161,1.84783 z m 34.5,-9.60914 c 22.35513,-12.28734 42.08944,-33.52075 52.89848,-56.91687 4.09876,-8.87176 8.10152,-20.72325 8.10152,-23.98724 0,-1.78057 -0.65883,-1.91191 -8.25,-1.64466 l -8.25,0.29044 -2.16538,7.61625 c -8.14578,28.65101 -26.57258,55.10892 -49.97414,71.75482 -4.54962,3.23622 -8.04922,6.10686 -7.77687,6.3792 1.29595,1.29595 10.4974,-0.78825 15.41639,-3.49194 z m -21.60507,-1.22985 c 10.8323,-6.17305 17.11482,-11.21701 27.4936,-22.07341 9.74391,-10.19231 17.2983,-20.93186 22.72964,-32.31313 4.61711,-9.67508 9.6764,-25.24737 8.56402,-26.35975 -0.47955,-0.47955 -4.40187,-0.73922 -8.71627,-0.57705 l -7.84437,0.29486 -1.66931,6.5 c -3.6397,14.17228 -12.43963,32.2234 -21.93829,45.00156 -8.16592,10.98527 -25.59536,27.40058 -32.68107,30.77952 -4.62096,2.20359 -4.16633,3.21892 1.44133,3.21892 3.81731,0 6.34691,-0.89624 12.62072,-4.47152 z m 49.30246,-3.99022 c 19.80388,-9.06651 43.69594,-38.83752 53.79659,-67.03393 3.86661,-10.79381 3.95377,-10.63644 -5.70188,-10.29477 l -8.2079,0.29044 -0.81163,4 c -2.48608,12.2522 -10.72665,30.61539 -19.70136,43.90224 -5.23278,7.74703 -18.15598,21.60405 -27.07121,29.02736 l -4.5,3.74695 3.43737,-0.60075 c 1.89055,-0.33041 5.83256,-1.6973 8.76002,-3.03754 z m 58.3236,-47.35552 c 6.97575,-10.3256 15.56907,-27.99268 14.25493,-29.30682 -0.55231,-0.55231 -2.94286,-0.86283 -5.31234,-0.69006 -3.60008,0.26251 -4.43037,0.72503 -5.05186,2.81414 -5.26476,17.69731 -10.47616,29.12987 -19.01574,41.71597 -2.69279,3.96878 -4.87491,7.56878 -4.84915,8 0.0977,1.6352 15.01706,-15.19564 19.97416,-22.53323 z m -74.63008,-48.43274 c 2.02661,-3.2275 -0.41659,-5.21405 -6.82879,-5.55242 -6.00019,-0.31664 -8.56212,0.79791 -8.56212,3.72486 0,3.1343 2.24954,4.17198 8.38747,3.86901 4.31689,-0.21308 6.20005,-0.76201 7.00344,-2.04145 z"
       id="path1"
       sodipodi:nodetypes="ssssssssssssscssscssssscccsssssssscssssssssscsssssssscssscssssssssssssss" /><path
       d="m 335.04492,24.166016 h -4.88672 v -7.646485 h 0.80274 v 6.960938 h 4.08398 z m 1.36524,-1.476563 q 0,-0.515625 0.25781,-0.861328 0.25781,-0.351563 0.67383,-0.550781 0.42187,-0.205078 0.96093,-0.292969 0.54493,-0.09375 1.10743,-0.09375 0.21679,0 0.38671,0.0059 0.17579,0.0059 0.32813,0.01758 0.1582,0.01172 0.31641,0.0293 0.1582,0.01758 0.3457,0.04102 v -0.392578 q 0,-0.398438 -0.17578,-0.65625 -0.16992,-0.257813 -0.42188,-0.404297 -0.25195,-0.152344 -0.52734,-0.210938 -0.27539,-0.06445 -0.46875,-0.06445 -0.60938,0 -1.125,0.164063 -0.51563,0.164062 -0.96094,0.439453 l -0.36328,-0.603516 q 0.49219,-0.298828 1.10156,-0.486328 0.61524,-0.193359 1.34766,-0.193359 0.44531,0 0.87305,0.117187 0.43359,0.111328 0.77343,0.351563 0.34571,0.234375 0.55078,0.621094 0.20508,0.386718 0.20508,0.925781 v 3.574219 h -0.80859 v -0.914063 q -0.21094,0.263672 -0.48047,0.462891 -0.26367,0.199218 -0.55664,0.328125 -0.29297,0.123047 -0.58594,0.1875 -0.29297,0.07031 -0.55664,0.07031 -1.08398,0 -1.64062,-0.416015 -0.55664,-0.416016 -0.55664,-1.195313 z m 2.19726,0.925781 q 0.50391,0 0.90235,-0.146484 0.40429,-0.152344 0.68554,-0.375 0.28125,-0.222656 0.4336,-0.474609 0.1582,-0.251954 0.1582,-0.457032 v -0.515625 q -0.39258,-0.05859 -0.75586,-0.06445 -0.35742,-0.0059 -0.62109,-0.0059 -0.4336,0 -0.83789,0.05859 -0.39844,0.05859 -0.69727,0.193359 -0.29883,0.128906 -0.48047,0.339844 -0.18164,0.210937 -0.18164,0.521484 0,0.345703 0.33398,0.638672 0.33985,0.287109 1.06055,0.287109 z m 9.82617,-2.173828 q 0,0.626953 -0.19336,1.154297 -0.19336,0.527344 -0.55664,0.908203 -0.35742,0.375 -0.86718,0.585938 -0.50977,0.210937 -1.14258,0.210937 -0.44531,0 -0.85547,-0.158203 -0.4043,-0.158203 -0.75586,-0.46875 v 0.492188 h -0.80273 v -7.646485 h 0.80273 v 2.689453 q 0.35156,-0.298828 0.75586,-0.46289 0.41016,-0.169922 0.85547,-0.169922 0.63281,0 1.14258,0.216797 0.50976,0.210937 0.86718,0.591797 0.36328,0.375 0.55664,0.908203 0.19336,0.527343 0.19336,1.148437 z m -0.81445,0 q 0,-0.46875 -0.12305,-0.861328 -0.11718,-0.398437 -0.36328,-0.691406 -0.24609,-0.292969 -0.61523,-0.462891 -0.36328,-0.169922 -0.84375,-0.169922 -0.92578,0 -1.61133,0.732422 v 2.917969 q 0.35156,0.380859 0.75,0.544922 0.4043,0.164062 0.86133,0.164062 0.48047,0 0.83789,-0.169922 0.36328,-0.169921 0.60937,-0.46289 0.2461,-0.292969 0.36914,-0.685547 0.12891,-0.398438 0.12891,-0.855469 z m 7.21875,1.212891 q 0,0.480469 -0.24023,0.796875 -0.24024,0.316406 -0.6211,0.503906 -0.375,0.1875 -0.84375,0.263672 -0.46289,0.08203 -0.9082,0.08203 -0.74414,0 -1.48242,-0.216797 -0.73828,-0.216797 -1.27735,-0.568359 l 0.35743,-0.691406 q 0.60351,0.380859 1.18945,0.585937 0.58594,0.205078 1.21289,0.205078 1.81055,0 1.81055,-0.9375 0,-0.228515 -0.15235,-0.36914 -0.14648,-0.146485 -0.39844,-0.234375 -0.25195,-0.09375 -0.58007,-0.146485 -0.32227,-0.05273 -0.67969,-0.09961 -0.45703,-0.06445 -0.9082,-0.152344 -0.45118,-0.08789 -0.82618,-0.263672 -0.36914,-0.175781 -0.59765,-0.46875 -0.22266,-0.292968 -0.22266,-0.773437 0,-0.410156 0.20508,-0.708985 0.21094,-0.298828 0.55664,-0.498046 0.35156,-0.199219 0.82031,-0.292969 0.46875,-0.09375 0.97266,-0.09375 0.7207,0 1.28906,0.169922 0.56836,0.164062 1.02539,0.474609 l -0.32226,0.626953 q -0.46875,-0.328125 -0.94922,-0.457031 -0.48047,-0.134766 -1.04297,-0.134766 -0.25195,0 -0.5625,0.04687 -0.30469,0.04102 -0.56836,0.152344 -0.26367,0.105469 -0.44531,0.28125 -0.17578,0.169922 -0.17578,0.433594 0,0.228515 0.14648,0.36914 0.15234,0.134766 0.4043,0.228516 0.25195,0.08789 0.57422,0.140625 0.32812,0.05273 0.68554,0.09961 0.44532,0.06445 0.89649,0.152344 0.45703,0.08789 0.82617,0.257813 0.375,0.169922 0.60351,0.46289 0.22852,0.292969 0.22852,0.773438 z"
       id="text1-1"
       style="font-family:'Anonymous Pro';-inkscape-font-specification:'Anonymous Pro';white-space:pre;fill:#131317"
       transform="matrix(11.463727,0,0,12.337349,-3396.3765,2.7224331)"
       aria-label="Labs" /><path
       d="m 335.04492,21.248047 q 0,1.453125 -0.62109,2.255859 -0.61524,0.796875 -1.88672,0.796875 -1.01953,0 -1.71094,-0.533203 -0.6914,-0.539062 -0.9668,-1.605469 l 0.69727,-0.263672 q 0.25195,0.949219 0.75,1.335938 0.49805,0.380859 1.23047,0.380859 0.53906,0 0.87305,-0.216797 0.33984,-0.216796 0.51562,-0.550781 0.18164,-0.339844 0.24609,-0.755859 0.0645,-0.421875 0.0645,-0.84375 v -4.728516 h 0.80859 z m 1.66406,-2.542969 h 0.80274 v 3.375 q 0,0.732422 0.3164,1.136719 0.32227,0.398437 1.03125,0.398437 0.44532,0 0.80274,-0.205078 0.35742,-0.205078 0.60937,-0.544922 0.25196,-0.345703 0.38086,-0.785156 0.13477,-0.445312 0.13477,-0.925781 v -2.449219 h 0.80859 v 5.460938 h -0.80859 v -1.365235 q -0.57422,1.5 -2.0625,1.5 -2.01563,0 -2.01563,-2.220703 z m 11.72461,2.736328 q 0,0.626953 -0.19336,1.154297 -0.19336,0.527344 -0.55664,0.908203 -0.35742,0.375 -0.86718,0.585938 -0.50977,0.210937 -1.14258,0.210937 -0.44531,0 -0.85547,-0.158203 -0.4043,-0.158203 -0.75586,-0.46875 v 0.492188 h -0.80273 v -7.646485 h 0.80273 v 2.689453 q 0.35156,-0.298828 0.75586,-0.46289 0.41016,-0.169922 0.85547,-0.169922 0.63281,0 1.14258,0.216797 0.50976,0.210937 0.86718,0.591797 0.36328,0.375 0.55664,0.908203 0.19336,0.527343 0.19336,1.148437 z m -0.81445,0 q 0,-0.46875 -0.12305,-0.861328 -0.11718,-0.398437 -0.36328,-0.691406 -0.24609,-0.292969 -0.61523,-0.462891 -0.36328,-0.169922 -0.84375,-0.169922 -0.92578,0 -1.61133,0.732422 v 2.917969 q 0.35156,0.380859 0.75,0.544922 0.4043,0.164062 0.86133,0.164062 0.48047,0 0.83789,-0.169922 0.36328,-0.169921 0.60937,-0.46289 0.2461,-0.292969 0.36914,-0.685547 0.12891,-0.398438 0.12891,-0.855469 z m 1.89258,1.248047 q 0,-0.515625 0.25781,-0.861328 0.25781,-0.351563 0.67383,-0.550781 0.42187,-0.205078 0.96094,-0.292969 0.54492,-0.09375 1.10742,-0.09375 0.2168,0 0.38672,0.0059 0.17578,0.0059 0.32812,0.01758 0.15821,0.01172 0.31641,0.0293 0.1582,0.01758 0.3457,0.04102 v -0.392578 q 0,-0.398438 -0.17578,-0.65625 -0.16992,-0.257813 -0.42187,-0.404297 -0.25196,-0.152344 -0.52735,-0.210938 -0.27539,-0.06445 -0.46875,-0.06445 -0.60937,0 -1.125,0.164063 -0.51562,0.164062 -0.96094,0.439453 l -0.36328,-0.603516 q 0.49219,-0.298828 1.10157,-0.486328 0.61523,-0.193359 1.34765,-0.193359 0.44531,0 0.87305,0.117187 0.43359,0.111328 0.77344,0.351563 0.3457,0.234375 0.55078,0.621094 0.20508,0.386718 0.20508,0.925781 v 3.574219 h -0.8086 v -0.914063 q -0.21094,0.263672 -0.48047,0.462891 -0.26367,0.199218 -0.55664,0.328125 -0.29297,0.123047 -0.58594,0.1875 -0.29296,0.07031 -0.55664,0.07031 -1.08398,0 -1.64062,-0.416015 -0.55664,-0.416016 -0.55664,-1.195313 z m 2.19726,0.925781 q 0.50391,0 0.90235,-0.146484 0.40429,-0.152344 0.68554,-0.375 0.28125,-0.222656 0.4336,-0.474609 0.1582,-0.251954 0.1582,-0.457032 v -0.515625 q -0.39258,-0.05859 -0.75586,-0.06445 -0.35742,-0.0059 -0.62109,-0.0059 -0.4336,0 -0.83789,0.05859 -0.39844,0.05859 -0.69727,0.193359 -0.29883,0.128906 -0.48047,0.339844 -0.18164,0.210937 -0.18164,0.521484 0,0.345703 0.33399,0.638672 0.33984,0.287109 1.06054,0.287109 z m 9.52735,-4.142578 q -0.4336,-0.216797 -1.03125,-0.216797 -0.49219,0 -0.87891,0.210938 -0.38672,0.210937 -0.65625,0.55664 -0.26953,0.339844 -0.41601,0.785157 -0.14063,0.439453 -0.14063,0.908203 v 1.763672 h 1.23633 v 0.685547 h -3.27539 v -0.685547 h 1.23633 v -4.089844 h -1.23633 v -0.685547 h 2.03906 v 1.371094 q 0.55078,-1.5 2.0918,-1.5 0.41601,0 0.7207,0.05273 0.31055,0.05273 0.57422,0.1875 z m 6.9082,2.953125 q -0.0937,0.861328 -0.67969,1.371094 -0.58007,0.503906 -1.45312,0.503906 -0.48047,0 -0.87891,-0.158203 -0.39844,-0.158203 -0.67969,-0.439453 -0.28125,-0.28125 -0.43945,-0.673828 -0.15234,-0.398438 -0.15234,-0.867188 V 19.390625 H 362.625 v -0.685547 h 1.23633 v -2.185547 h 0.80273 v 2.185547 h 2.32617 v 0.685547 h -2.32617 v 2.771484 q 0,0.298828 0.0937,0.5625 0.0996,0.263672 0.26953,0.462891 0.17578,0.199219 0.42188,0.316406 0.24609,0.111328 0.5625,0.111328 0.59765,0 0.99609,-0.36914 0.4043,-0.375 0.46289,-0.966797 z m 1.83399,-0.708984 q 0.0879,0.867187 0.63281,1.382812 0.54492,0.515625 1.41797,0.515625 0.61523,0 1.0957,-0.251953 0.48047,-0.251953 0.7207,-0.626953 l 0.5625,0.386719 q -0.41015,0.574219 -0.97851,0.878906 -0.56836,0.298828 -1.40039,0.298828 -0.63282,0 -1.16016,-0.210937 -0.52734,-0.210938 -0.91406,-0.585938 -0.38086,-0.380859 -0.5918,-0.902344 -0.21094,-0.521484 -0.21094,-1.160156 0,-0.621094 0.1875,-1.142578 0.19336,-0.527344 0.55078,-0.908203 0.36329,-0.386719 0.87891,-0.597656 0.51563,-0.216797 1.1543,-0.216797 0.69726,0 1.21875,0.234375 0.52148,0.234375 0.86719,0.65039 0.35156,0.410157 0.51562,0.984375 0.16992,0.574219 0.16992,1.271485 z m 3.86718,-0.685547 q -0.13476,-0.896484 -0.65039,-1.335938 -0.51562,-0.439453 -1.27148,-0.439453 -0.38672,0 -0.71485,0.128907 -0.32812,0.123046 -0.58007,0.357421 -0.25196,0.234375 -0.42188,0.56836 -0.16992,0.328125 -0.2168,0.720703 z"
       id="text1-1-1"
       style="font-family:'Anonymous Pro';-inkscape-font-specification:'Anonymous Pro';white-space:pre;fill:#131317"
       transform="matrix(11.463727,0,0,12.337349,-3396.3765,-117.27757)"
       aria-label="Jubarte" /></g></svg>
