<?xml version="1.0" encoding="UTF-8" standalone="no"?>
<!-- Created with Inkscape (http://www.inkscape.org/) -->

<svg
   version="1.1"
   id="svg1"
   width="315.88339"
   height="216.91866"
   viewBox="0 0 315.88339 216.91866"
   sodipodi:docname="Whale logo.svg"
   xml:space="preserve"
   inkscape:version="1.4.2 (f4327f4, 2025-05-13)"
   inkscape:export-filename="Whale logo.png"
   inkscape:export-xdpi="80.842102"
   inkscape:export-ydpi="80.842102"
   xmlns:inkscape="http://www.inkscape.org/namespaces/inkscape"
   xmlns:sodipodi="http://sodipodi.sourceforge.net/DTD/sodipodi-0.dtd"
   xmlns="http://www.w3.org/2000/svg"
   xmlns:svg="http://www.w3.org/2000/svg"><defs
     id="defs1" /><sodipodi:namedview
     id="namedview1"
     pagecolor="#ffffff"
     bordercolor="#000000"
     borderopacity="0.25"
     inkscape:showpageshadow="2"
     inkscape:pageopacity="0.0"
     inkscape:pagecheckerboard="0"
     inkscape:deskcolor="#d1d1d1"
     inkscape:zoom="1.4005477"
     inkscape:cx="131.73418"
     inkscape:cy="158.15241"
     inkscape:window-width="1920"
     inkscape:window-height="1094"
     inkscape:window-x="-11"
     inkscape:window-y="-11"
     inkscape:window-maximized="1"
     inkscape:current-layer="layer1"
     showguides="false" /><g
     inkscape:groupmode="layer"
     id="layer1"
     inkscape:label="White"><rect
       style="fill:#ffffff;fill-opacity:1"
       id="rect1"
       width="380"
       height="260"
       x="-33.558296"
       y="-22.134193" /></g><g
     inkscape:groupmode="layer"
     inkscape:label="Image"
     id="g1"
     style="fill:#5b5962;fill-opacity:1"
     transform="translate(-333.56207,-84.103604)"><path
       d="m 500.04837,300.7258 c -26.00362,-2.81982 -47.20177,-10.82972 -65.81326,-24.86809 -27.21564,-20.52834 -45.01764,-47.98745 -52.18853,-80.49938 -2.60022,-11.78907 -3.11991,-38.29132 -0.98046,-50 0.95473,-5.225 1.95488,-10.7375 2.22256,-12.25 0.43725,-2.47063 0.19579,-2.75156 -2.37681,-2.76535 -4.70257,-0.0252 -18.31622,-3.8133 -24.24467,-6.74622 -7.85867,-3.88785 -18.1972,-14.40192 -20.40603,-20.75251 -1.85263,-5.326458 -3.48481,-18.485926 -2.29283,-18.485926 0.39004,0 1.85254,1.35883 3.25,3.01961 1.39746,1.66079 4.54684,4.19521 6.99862,5.63205 4.33848,2.542518 4.76248,2.593668 15.8441,1.911258 13.19156,-0.81235 17.38119,0.39762 23.88018,6.896628 l 3.71409,3.71409 4.81444,-4.50334 c 6.21318,-5.811718 10.04756,-6.835398 22.61958,-6.038908 11.48545,0.72766 13.60702,0.0387 21.07338,-6.843568 l 4.38564,-4.04254 v 6.08985 c 0,19.220266 -16.14639,34.396816 -41.75,39.242276 -3.4375,0.65055 -6.25,1.59588 -6.25,2.10074 0,0.50486 1.51239,3.28218 3.36086,6.17181 5.25048,8.20781 15.95793,18.18932 23.49061,21.898 l 6.60523,3.25205 111.52165,0.5 111.52165,0.5 0.31799,3.3121 c 0.51827,5.39817 -1.59773,23.08357 -3.79135,31.6879 -12.93593,50.7403 -54.33666,90.09839 -105.21054,100.01964 -8.15773,1.59089 -32.42752,2.70326 -40.3161,1.84783 z m 34.5,-9.60914 c 22.35513,-12.28734 42.08944,-33.52075 52.89848,-56.91687 4.09876,-8.87176 8.10152,-20.72325 8.10152,-23.98724 0,-1.78057 -0.65883,-1.91191 -8.25,-1.64466 l -8.25,0.29044 -2.16538,7.61625 c -8.14578,28.65101 -26.57258,55.10892 -49.97414,71.75482 -4.54962,3.23622 -8.04922,6.10686 -7.77687,6.3792 1.29595,1.29595 10.4974,-0.78825 15.41639,-3.49194 z m -21.60507,-1.22985 c 10.8323,-6.17305 17.11482,-11.21701 27.4936,-22.07341 9.74391,-10.19231 17.2983,-20.93186 22.72964,-32.31313 4.61711,-9.67508 9.6764,-25.24737 8.56402,-26.35975 -0.47955,-0.47955 -4.40187,-0.73922 -8.71627,-0.57705 l -7.84437,0.29486 -1.66931,6.5 c -3.6397,14.17228 -12.43963,32.2234 -21.93829,45.00156 -8.16592,10.98527 -25.59536,27.40058 -32.68107,30.77952 -4.62096,2.20359 -4.16633,3.21892 1.44133,3.21892 3.81731,0 6.34691,-0.89624 12.62072,-4.47152 z m 49.30246,-3.99022 c 19.80388,-9.06651 43.69594,-38.83752 53.79659,-67.03393 3.86661,-10.79381 3.95377,-10.63644 -5.70188,-10.29477 l -8.2079,0.29044 -0.81163,4 c -2.48608,12.2522 -10.72665,30.61539 -19.70136,43.90224 -5.23278,7.74703 -18.15598,21.60405 -27.07121,29.02736 l -4.5,3.74695 3.43737,-0.60075 c 1.89055,-0.33041 5.83256,-1.6973 8.76002,-3.03754 z m 58.3236,-47.35552 c 6.97575,-10.3256 15.56907,-27.99268 14.25493,-29.30682 -0.55231,-0.55231 -2.94286,-0.86283 -5.31234,-0.69006 -3.60008,0.26251 -4.43037,0.72503 -5.05186,2.81414 -5.26476,17.69731 -10.47616,29.12987 -19.01574,41.71597 -2.69279,3.96878 -4.87491,7.56878 -4.84915,8 0.0977,1.6352 15.01706,-15.19564 19.97416,-22.53323 z m -74.63008,-48.43274 c 2.02661,-3.2275 -0.41659,-5.21405 -6.82879,-5.55242 -6.00019,-0.31664 -8.56212,0.79791 -8.56212,3.72486 0,3.1343 2.24954,4.17198 8.38747,3.86901 4.31689,-0.21308 6.20005,-0.76201 7.00344,-2.04145 z"
       style="fill:#131317;fill-opacity:1"
       id="path1" /></g></svg>
